<?xml version="1.0" encoding="UTF-8"?>
<svg id="Capa_1" data-name="Capa 1" xmlns="http://www.w3.org/2000/svg" viewBox="0 0 450 117.23">
  <defs>
    <style>
      .cls-1 {
        fill: #77c2d7;
      }

      .cls-2 {
        fill: #63bcd3;
      }

      .cls-3 {
        fill: #0085ae;
      }

      .cls-4 {
        fill: #0081aa;
      }
    </style>
  </defs>
  <path class="cls-3" d="M19.47,3.36c6.06-1.67,11,4.48,10.43,10.44-.9,9.38-24.45,25.87-17.45,37.72,6.79,11.49,54.11-14.24,50.25,22.04-.8,7.48-12.99,37-20.45,38.07-6.34.91-11.56-4.71-10.72-10.77.9-6.5,14.37-16.9,17-24.77,8.8-26.41-21.6-12.28-33.91-13.25C-15.97,60.43,9.35,6.14,19.47,3.36Z"/>
  <path class="cls-1" d="M38.19,68.19c1.29,1.42-11.8,21.87-13.99,23.46-6.35,4.63-10.72.63-5.89-5.92l19.88-17.54Z"/>
  <path class="cls-1" d="M22.08,46.49c-1.32-1.4,11.42-22.07,13.58-23.7,6.27-4.74,10.71-.81,5.99,5.82l-19.57,17.88Z"/>
  <g>
    <path class="cls-4" d="M92.04,59.12V16.01h17.92c3,0,5.52.47,7.57,1.42,2.05.94,3.61,2.25,4.68,3.91,1.07,1.66,1.6,3.6,1.6,5.82s-.47,3.94-1.42,5.42c-.95,1.48-2.19,2.62-3.73,3.42-1.54.8-3.23,1.26-5.08,1.39l.99-.68c1.97.08,3.73.62,5.26,1.6,1.54.99,2.75,2.27,3.63,3.85.88,1.58,1.32,3.32,1.32,5.2,0,2.3-.55,4.34-1.66,6.13s-2.72,3.17-4.83,4.16c-2.11.98-4.69,1.48-7.73,1.48h-18.54ZM100.66,33.93h7.88c2.09,0,3.7-.48,4.8-1.45s1.66-2.33,1.66-4.1-.55-3.07-1.66-4.03-2.73-1.45-4.86-1.45h-7.82v11.02ZM100.66,52.1h8.56c2.18,0,3.86-.5,5.05-1.51,1.19-1.01,1.79-2.43,1.79-4.28s-.62-3.3-1.85-4.37c-1.23-1.07-2.94-1.6-5.11-1.6h-8.44v11.76Z"/>
    <path class="cls-4" d="M128.74,59.12l15.7-43.11h9.79l15.7,43.11h-9.11l-11.52-33.32-11.58,33.32h-8.99ZM135.64,49.45l2.28-6.71h22.17l2.22,6.71h-26.66Z"/>
    <path class="cls-4" d="M175.79,59.12V16.01h16.32c3.49,0,6.37.6,8.65,1.79,2.28,1.19,3.98,2.78,5.11,4.77,1.13,1.99,1.69,4.22,1.69,6.68,0,2.3-.54,4.46-1.63,6.47-1.09,2.01-2.78,3.62-5.08,4.83-2.3,1.21-5.23,1.82-8.81,1.82h-7.64v16.75h-8.62ZM184.41,36.09h7.2c2.42,0,4.22-.59,5.39-1.79,1.17-1.19,1.75-2.77,1.75-4.74s-.58-3.47-1.72-4.62c-1.15-1.15-2.98-1.72-5.48-1.72h-7.14v12.87ZM198.08,59.12l-8.81-18.9h9.36l9.3,18.9h-9.85Z"/>
    <path class="cls-4" d="M215.14,59.12V16.01h8.62v43.11h-8.62Z"/>
    <path class="cls-4" d="M229.61,59.12l15.7-43.11h9.79l15.7,43.11h-9.11l-11.52-33.32-11.58,33.32h-8.99ZM236.5,49.45l2.28-6.71h22.17l2.22,6.71h-26.66ZM243.71,13.36l-.8-5.67,13.61-7.7.99,6.53-13.79,6.84Z"/>
    <path class="cls-4" d="M282.2,59.12V22.97h-12.56v-6.96h33.68v6.96h-12.56v36.15h-8.56Z"/>
    <path class="cls-4" d="M309.48,59.12V16.01h16.32c3.49,0,6.37.6,8.65,1.79s3.98,2.78,5.11,4.77c1.13,1.99,1.69,4.22,1.69,6.68,0,2.3-.54,4.46-1.63,6.47-1.09,2.01-2.78,3.62-5.08,4.83-2.3,1.21-5.23,1.82-8.81,1.82h-7.64v16.75h-8.62ZM318.1,36.09h7.21c2.42,0,4.22-.59,5.39-1.79,1.17-1.19,1.75-2.77,1.75-4.74s-.58-3.47-1.72-4.62c-1.15-1.15-2.98-1.72-5.48-1.72h-7.14v12.87ZM331.77,59.12l-8.81-18.9h9.36l9.3,18.9h-9.85Z"/>
    <path class="cls-4" d="M348.83,59.12V16.01h8.62v43.11h-8.62Z"/>
    <path class="cls-4" d="M385.59,59.86c-4.31,0-8.03-.93-11.15-2.8-3.12-1.87-5.52-4.47-7.2-7.82-1.68-3.35-2.52-7.21-2.52-11.61s.84-8.27,2.52-11.64c1.68-3.37,4.08-5.99,7.2-7.88,3.12-1.89,6.84-2.83,11.15-2.83,5.21,0,9.5,1.31,12.87,3.94,3.37,2.63,5.46,6.32,6.28,11.08h-9.48c-.49-2.3-1.57-4.07-3.23-5.33-1.66-1.25-3.85-1.88-6.56-1.88-2.5,0-4.65.59-6.43,1.75-1.79,1.17-3.15,2.84-4.1,5.02-.95,2.18-1.42,4.76-1.42,7.76s.47,5.57,1.42,7.73c.94,2.15,2.31,3.82,4.1,4.99,1.79,1.17,3.93,1.75,6.43,1.75,2.71,0,4.89-.58,6.53-1.75s2.73-2.8,3.26-4.9h9.48c-.82,4.48-2.92,8-6.28,10.56-3.37,2.57-7.66,3.85-12.87,3.85Z"/>
    <path class="cls-4" d="M408.8,59.12l15.7-43.11h9.79l15.7,43.11h-9.11l-11.52-33.32-11.58,33.32h-8.99ZM415.7,49.45l2.28-6.71h22.17l2.22,6.71h-26.66Z"/>
  </g>
  <g>
    <path class="cls-2" d="M92.6,116.49v-43.11h5.17v43.11h-5.17Z"/>
    <path class="cls-2" d="M108.55,116.49v-43.11h5.17l22.97,34.55v-34.55h5.17v43.11h-5.17l-22.97-34.55v34.55h-5.17Z"/>
    <path class="cls-2" d="M162.74,116.49v-38.86h-12.87v-4.25h30.91v4.25h-12.87v38.86h-5.17Z"/>
    <path class="cls-2" d="M188.73,116.49v-43.11h26.66v4.25h-21.49v15.03h19.64v4.19h-19.64v15.4h21.49v4.25h-26.66Z"/>
    <path class="cls-2" d="M243.6,117.23c-4.02,0-7.55-.93-10.59-2.8-3.04-1.87-5.4-4.46-7.08-7.79-1.68-3.33-2.52-7.21-2.52-11.64s.85-8.27,2.55-11.64c1.7-3.37,4.13-5.99,7.27-7.88,3.14-1.89,6.84-2.83,11.11-2.83,4.84,0,8.89,1.16,12.13,3.48,3.24,2.32,5.32,5.55,6.22,9.7h-5.97c-.58-2.59-1.93-4.64-4.06-6.16-2.14-1.52-4.91-2.28-8.31-2.28-3.16,0-5.92.71-8.28,2.12-2.36,1.42-4.18,3.44-5.45,6.07-1.27,2.63-1.91,5.77-1.91,9.42s.64,6.8,1.91,9.45c1.27,2.65,3.05,4.67,5.33,6.07,2.28,1.4,4.9,2.09,7.85,2.09,4.6,0,8.07-1.35,10.41-4.06,2.34-2.71,3.67-6.38,4-11.02h-12.44v-4.06h17.74v23.03h-4.74l-.43-7.08c-1.03,1.68-2.21,3.11-3.54,4.28-1.33,1.17-2.9,2.05-4.71,2.65-1.81.59-3.96.89-6.47.89Z"/>
    <path class="cls-2" d="M273.28,116.49v-43.11h13.92c3.37,0,6.12.57,8.25,1.69,2.13,1.13,3.72,2.64,4.74,4.53,1.03,1.89,1.54,4.02,1.54,6.4s-.52,4.41-1.57,6.34c-1.05,1.93-2.66,3.47-4.83,4.62-2.18,1.15-4.97,1.72-8.37,1.72h-8.5v17.8h-5.17ZM278.45,94.63h8.37c3.28,0,5.7-.8,7.24-2.4s2.31-3.65,2.31-6.16-.75-4.57-2.25-6.07c-1.5-1.5-3.95-2.25-7.36-2.25h-8.31v16.87ZM296.06,116.49l-9.48-19.28h5.79l9.79,19.28h-6.1Z"/>
    <path class="cls-2" d="M308.62,116.49l15.89-43.11h5.48l15.83,43.11h-5.48l-13.12-36.64-13.18,36.64h-5.42ZM315.89,105.4l1.48-4.19h19.52l1.48,4.19h-22.48Z"/>
    <path class="cls-2" d="M353.82,116.49v-43.11h5.17v38.98h20.07v4.13h-25.25Z"/>
  </g>
</svg>